<?xml version="1.0" encoding="utf-8"?>
<!-- Generator: Adobe Illustrator 19.0.0, SVG Export Plug-In . SVG Version: 6.00 Build 0)  -->
<svg version="1.1" id="图层_1" xmlns="http://www.w3.org/2000/svg" xmlns:xlink="http://www.w3.org/1999/xlink" x="0px" y="0px"
	 viewBox="0 0 493.8 278.7" style="enable-background:new 0 0 493.8 278.7;" xml:space="preserve">
<style type="text/css">
	.st0{fill:#FFFFFF;}
	.st1{stroke:#FFFFFF;stroke-width:0.3838;stroke-miterlimit:10;}
	.st2{fill:none;stroke:#FFFFFF;stroke-width:2.6864;stroke-miterlimit:10;}
	.st3{fill:none;stroke:#000000;stroke-width:1.1513;stroke-linecap:round;stroke-linejoin:round;stroke-miterlimit:10;}
	.st4{fill:none;stroke:#000000;stroke-width:1.1513;stroke-miterlimit:10;}
</style>
<g id="XMLID_12_">
	<g id="XMLID_2126_">
		<g id="XMLID_2207_">
			<path id="XMLID_2210_" class="st0" d="M245.4,140.3c-0.2-0.4-0.5-0.7-0.7-1.2c-0.8-2,0.4-4.6,2.5-5.2c1.4-0.4,2.8-0.1,4,0.7
				c0.5,0.4,1,0.8,1.5,1.3c0.2,0.2,0.4,0.6,0.5,0.9c0.1,0.3,0.2,0.6-0.2,0.8c-0.4,0.1-0.4-0.2-0.6-0.4c-0.9-1.3-2-2.2-3.7-2.3
				c-1.5-0.1-3.1,1.3-3.2,2.9c0,0.6,0,1.2,0.1,1.8c0,0.2,0,0.4,0,0.6C245.5,140.3,245.4,140.3,245.4,140.3z"/>
			<path id="XMLID_2209_" class="st0" d="M305.9,134c0-0.2,0-0.4,0.1-0.5c0.5-0.6,1.1-1.1,1.9-1.4c0.8-0.2,1.5-0.2,2.1,0.5
				c0.2,0.2,0.4,0.4,0.7,0.6c0.1,0,0.1,0,0.2-0.1c0-0.3,0-0.6-0.1-0.8c-0.3-0.8-1-1.3-1.9-1.3c-0.9,0-1.7,0.2-2.4,0.7
				c-0.2,0.1-0.4,0.3-0.6,0.5c0-0.1-0.1-0.2-0.1-0.3L305.9,134z"/>
			<path id="XMLID_2208_" class="st0" d="M274.9,183c0.1,0,0.3,0,0.4,0c1.2,0.4,2.3,0.9,3.5,1.4l4.7,1.4c0.5,0.2,1.1,0.3,1.6,0.5
				c2.5,0.7,5.1,1.3,7.7,1.3c2,0,3.7-0.8,5.1-2.1c1-0.9,1.9-2,2.8-3.1c0.2-0.2,0.4-0.3,0.6-0.3c1.2,0.1,2.3-0.3,3.2-1
				c1.7-1.3,3.1-3,4.1-4.9c0.3-0.5,0.5-1.1,0.5-1.6c0.1-1.1-0.3-2.1-1-3c-0.5-0.7-1.1-1.3-1.6-2c-0.4-0.5-0.8-1.1-0.8-1.7
				c-0.1-1.3-0.2-2.6-0.1-3.9c0.1-1.4,0.3-2.8,0.5-4.2c0.4-3.2,0.6-6.4,0.4-9.6c-0.1-1.7-0.2-3.3-0.3-5c0-0.3,0.1-0.4,0.3-0.6
				c0.6-0.4,1.1-0.8,1.6-1.2c1.6-1.6,2.9-3.5,3.9-5.5c0.8-1.7,1.6-3.5,1.6-5.5c0-2.1-0.4-4.1-1.9-5.7c-0.7-0.8-1.6-1.3-2.7-1.4
				c-1.2-0.1-2.3,0.1-3.4,0.5c-0.1,0.1-0.3,0.1-0.4,0.1c0-0.1,0-0.2,0-0.3c-0.2-2.9-0.4-5.8-0.7-8.6c-0.4-3.6-0.8-7.2-1.2-10.8
				c0-0.4-0.1-0.8,0.2-1.1c0.2-0.3,0.4-0.6,0.4-0.9c0.2-0.8,0.3-1.5,0.4-2.3c0.2-2.1-0.1-4.2-0.9-6.2c-0.4-1-0.9-1.9-1.3-2.6
				c0.1-0.4,0.2-0.8,0.2-1.1c-0.3,0.1-0.6,0.1-1,0.2c-0.1-0.1-0.2-0.3,0.1-0.5c0.1-0.1,0.3-0.3,0.4-0.5c0-0.1,0-0.3-0.1-0.4
				c0-0.1-0.3,0-0.4,0c-0.2,0.1-0.4,0.3-0.6,0.6c-1.4-1.6-3-2.9-4.7-3.8c0-0.4,0-0.7,0-0.9c-0.3,0.1-0.5,0.3-0.8,0.4
				c-0.1,0-0.2,0-0.4-0.1c-1.5-0.7-3-1.4-4.6-1.9c-3.5-1.1-7-1.7-10.7-1.5c-2.4,0.1-4.7,0.2-7.1,0.5c-3.3,0.4-6.6,1.4-9.7,2.6
				c-0.1,0-0.3,0.1-0.4,0.1c-0.1-0.3-0.1-0.5-0.2-0.7c0-0.1-0.2-0.2-0.3-0.3c-0.1,0.1-0.1,0.2-0.2,0.3c0,0.1-0.1,0.2,0,0.3
				c0.1,0.6-0.2,0.8-0.7,1c-0.3,0.1-0.5,0-0.7-0.2c-0.2-0.3-0.4-0.5-0.7-0.7c-0.3,0.6-0.1,1,0.2,1.4c-0.2,0.1-0.3,0.1-0.5,0.2
				c-2,0.9-4,1.9-5.6,3.5c-1.2,1.1-2.3,2.4-3,3.9c-1.1,2.4-1.6,5-1.9,7.6c-0.2,1.8-0.4,3.5-0.6,5.3c-0.5,0.1-0.6,0.2-0.2,0.7
				c0.1,0.1,0.2,0.3,0.2,0.5c-0.1,2.2-0.2,4.4-0.2,6.6c0,2.9,0.1,5.7,0.2,8.6c0,0.7,0.1,1.4,0.2,2.1c-0.2,0-0.4-0.1-0.5-0.1
				c-1.2-0.2-2.3-0.2-3.4,0.4c-3.2,1.7-4.9,4.3-5,8c-0.1,2.4,0.7,4.6,1.7,6.7c1,2,2.4,3.7,4.3,4.9c1.6,1,3.3,1.5,5.2,1.7
				c0.3,0,0.4,0.1,0.5,0.4c0.5,2.4,0.9,4.8,1.4,7.2c0.7,3.5,1.6,6.9,2.3,10.4c0,0.2,0.9,3.1,0.9,2.9c0.6,1.2,1.3,2.3,2.2,3.2
				c0.9,0.9,2,1.7,3.3,1.8c0-0.1,0.1-0.1,0.1-0.2"/>
		</g>
		<g id="XMLID_2128_">
			<g id="XMLID_2204_">
				<path id="XMLID_32_" d="M245.4,140.3c-0.2-0.4-0.5-0.7-0.7-1.2c-0.8-2,0.4-4.6,2.5-5.2c1.4-0.4,2.8-0.1,4,0.7
					c0.5,0.4,1,0.8,1.5,1.3c0.2,0.2,0.4,0.6,0.5,0.9c0.1,0.3,0.2,0.6-0.2,0.8c-0.4,0.1-0.4-0.2-0.6-0.4c-0.9-1.3-2-2.2-3.7-2.3
					c-1.5-0.1-3.1,1.3-3.2,2.9c0,0.6,0,1.2,0.1,1.8c0,0.2,0,0.4,0,0.6C245.5,140.3,245.4,140.3,245.4,140.3z"/>
			</g>
			<path id="XMLID_2203_" d="M267.4,194.7c0.1-0.3,0.2-0.5,0.3-0.8c0.1-0.5,0.5-0.5,0.9-0.4c0.4,0.1,0.7,0.3,0.7,0.8
				c0,0.3-0.1,0.7-0.2,1c-0.2,0.5-0.7,0.6-1.1,0.5C267.5,195.6,267.4,195.3,267.4,194.7z"/>
			<path id="XMLID_2202_" d="M254.6,133.4c0.4,0.5,0.8,0.5,1.2,0.2c0.3-0.2,0.6-0.5,0.9-0.7c0.3-0.2,0.5-0.5,0.4-0.9
				c-0.3-1.7-0.5-3.5-0.8-5.2c-0.8-5.3-1.3-10.5-1.4-15.8c0-1.3,0-2.6,0-3.9c0-0.2,0.2-0.4,0.3-0.5c1.3-0.7,2.6-1.4,3.9-2
				c3-1.3,6.2-2.2,9.3-3c0.6-0.2,1.3-0.3,2-0.5c0,0.1-0.1,0.1-0.1,0.2c0.2,0.2,0.5,0.7,0.7,0.6c0.6-0.1,0.2-0.6,0.4-1
				c1-0.2,2-0.4,3-0.6c0.4-0.1,0.7-0.1,0.8,0.4c0,0.1,0.2,0.2,0.3,0.3c0.1-0.1,0.2-0.2,0.3-0.3c0.1-0.2,0-0.4,0.1-0.6
				c0,0,0.1,0,0.1,0c0.2,0.3,0.3,0.6,0.5,0.9c0.1,0,0.1,0,0.2,0c0.1-0.3,0.2-0.6,0.3-1c0.2,0,0.5-0.1,0.7-0.1c3-0.2,5.9-0.5,8.9-0.6
				c2-0.1,4.1,0.2,6.1,0.4c3.4,0.4,6.4,2,9.4,3.6c0.2,0.1,0.3,0.3,0.3,0.5c0.1,0.5,0.1,1,0.2,1.5l0,0c0,0,0.4,0.1,0.8,0
				c0-0.3,0-0.5,0.2-0.8c0.2-0.3,0.4-0.6,0.4-0.9c0.2-0.8,0.3-1.5,0.3-2.3c0.2-2.1-0.2-4.2-1-6.2c-0.4-0.9-0.9-1.9-1.3-2.6
				c0.1-0.4,0.2-0.8,0.2-1.1c-0.3,0.1-0.6,0.1-0.9,0.2c-0.1-0.1-0.2-0.3,0.1-0.5c0.1-0.1,0.3-0.3,0.4-0.5c0-0.1,0-0.3-0.1-0.4
				c0-0.1-0.3,0-0.4,0c-0.2,0.2-0.4,0.4-0.6,0.6c-1.4-1.6-3.1-2.8-4.7-3.7c0-0.4,0-0.7,0-0.9c-0.3,0.1-0.5,0.3-0.8,0.4
				c-0.1,0-0.2,0-0.4-0.1c-1.5-0.6-3-1.4-4.6-1.9c-3.5-1-7.1-1.6-10.7-1.4c-2.4,0.1-4.7,0.3-7.1,0.6c-3.3,0.5-6.5,1.5-9.7,2.7
				c-0.1,0.1-0.3,0.1-0.4,0.1c-0.1-0.3-0.1-0.5-0.2-0.7c-0.1-0.1-0.2-0.2-0.3-0.2c-0.1,0.1-0.1,0.2-0.2,0.3c0,0.1-0.1,0.2,0,0.3
				c0.1,0.6-0.2,0.8-0.7,1c-0.3,0.1-0.5,0-0.7-0.2c-0.2-0.2-0.4-0.5-0.7-0.7c-0.3,0.6,0,1,0.2,1.4c-0.2,0.1-0.3,0.1-0.5,0.2
				c-2,0.9-3.9,2-5.6,3.5c-1.2,1.1-2.3,2.4-2.9,4c-1.1,2.4-1.5,5-1.8,7.7c-0.2,1.8-0.3,3.5-0.5,5.3c-0.5,0.1-0.6,0.2-0.2,0.7
				c0.1,0.1,0.2,0.3,0.2,0.5c0,2.2-0.2,4.4-0.1,6.6c0.1,2.9,0.2,5.7,0.4,8.6c0,0.7,0.1,1.4,0.2,2.1
				C248.7,126.6,252.1,128,254.6,133.4z"/>
			<path id="XMLID_2199_" class="st1" d="M267.7,187c-0.1,0.4-0.1,0.8-0.2,1.3c-0.1,0.4-0.3,0.7-0.7,0.7c-0.5,0-0.7-0.3-0.9-0.7
				c-0.2-0.7,0-1.4,0.2-2.1c0.1-0.5,0.3-1.1,0.4-1.6c0.1-0.4,0.3-0.5,0.6-0.3c0.5,0.3,0.6,0.8,0.7,1.3
				C267.8,186,267.7,186.4,267.7,187z M266.5,187.9c0,0,0.1,0,0.1,0c0.1-0.6,0.1-1.1,0.2-1.7c0,0-0.1,0-0.1,0
				C266.6,186.8,266.6,187.3,266.5,187.9z"/>
			<path id="XMLID_2196_" class="st1" d="M263.5,180c-0.1,0.7-0.6,1.2-1.2,1.1c-0.6-0.1-1-0.6-0.9-1.2c0.1-0.4,0.2-0.8,0.4-1.2
				c0.3-0.6,1.1-0.6,1.4,0C263.3,179.2,263.4,179.6,263.5,180z M262.5,179.1c-0.1,0-0.2,0-0.3,0c0,0.3-0.1,0.6-0.1,0.9
				c0,0.1,0.1,0.2,0.2,0.3c0.1-0.1,0.2-0.2,0.2-0.3C262.6,179.6,262.5,179.4,262.5,179.1z"/>
			<path id="XMLID_2194_" d="M280.6,122.8c0.1,1.1,0,2-0.3,3c-0.6,1.7-1.8,2.6-3.4,3.1c-2.2,0.7-4.5,1-6.8,0.7
				c-1.8-0.3-3.2-1.1-4-2.8c-0.6-1.2-0.8-2.4-0.8-3.7c-0.1-1.7-0.2-3.4-0.7-5c-0.3-1-0.7-2.1-1.1-3.1c-0.7-1.8-0.5-3.4,0.7-4.9
				c1.5-1.8,3.5-2.7,5.7-3.2c1.3-0.3,2.7-0.5,4-0.3c1.3,0.1,2.4,0.7,3.1,1.9c0.7,1.2,1.2,2.5,1.5,3.9c0.8,3.1,1.8,6.2,2,9.5
				C280.6,122.1,280.6,122.5,280.6,122.8z"/>
			<path id="XMLID_2192_" d="M288.3,119.8c0.1-1.8-0.1-3.6-0.5-5.4c-0.2-0.8-0.5-1.5-0.8-2.3c-0.5-1.6-0.1-3.1,1.1-4.3
				c1.4-1.4,3.1-2,4.9-2.6c1.6-0.4,3.1-0.2,4.6,0.1c1.3,0.3,2.2,1,2.7,2.3c1,2.6,1.3,5.2,1.6,7.9c0.2,2,0.4,4.1,0.2,6.1
				c-0.1,0.7-0.2,1.3-0.5,2c-0.6,1.7-1.9,2.6-3.6,2.8c-1.8,0.3-3.6,0.3-5.4,0.1c-2.5-0.4-4.1-2.2-4.2-4.8
				C288.4,121.1,288.4,120.4,288.3,119.8z"/>
			<path id="XMLID_2190_" d="M265.7,141.1c-1.1,0.1-2.2,0.2-3.2,0.6c-0.1,0.1-0.3,0.2-0.4,0.2c-0.2,0-0.5,0-0.6-0.1
				c-0.1-0.1-0.1-0.4,0-0.6c1-2.1,2.1-4.2,3.1-6.3c0.2-0.4,0.5-0.8,0.8-1.2c0.3-0.4,0.6-0.3,0.7,0.2c0.1,0.2,0.1,0.4,0.1,0.6
				c0,1,0,2-0.1,2.9c0.6-0.1,1.3-0.3,1.9-0.3c0.8-0.1,1.3,0.4,1.4,1.3c0.1,1.1-0.3,2.2-0.8,3.2c-1.2,2.7-3,5.1-5.2,7.2
				c-0.2,0.2-0.5,0.3-0.8,0.5c0,0-0.1-0.1-0.1-0.1c0.1-0.3,0.1-0.6,0.2-0.8c0.6-1.4,1.2-2.8,1.8-4.3c0.3-0.8,0.7-1.5,1-2.3
				C265.6,141.6,265.6,141.4,265.7,141.1z"/>
			<path id="XMLID_2189_" d="M294,147.4c0.3,0,0.7,0.1,1,0.1c0.7,0,1.5,0.1,2.2,0.1c0.8,0,1.5-0.5,1.8-1.2c0.3-0.7,0.6-1.4,0.6-2.1
				c0.3-4.8-1.4-8.8-5.4-11.6c-1.1-0.8-2.4-1.4-3.6-2c-0.1-0.1-0.2-0.2-0.2-0.3c0-0.1,0.2-0.3,0.3-0.3c0.4,0,0.9,0,1.3,0.1
				c1,0.5,2.1,1,3,1.7c2.2,1.6,4.1,3.5,5.1,6.1c0.9,2.3,1.2,4.7,0.8,7.1c-0.1,0.6-0.4,1.2-0.6,1.8c-1,2-3,2.2-4.7,1.6
				c-0.6-0.2-1.2-0.7-1.8-1C294,147.6,294,147.5,294,147.4z"/>
			<path id="XMLID_2188_" d="M275.5,154.8c-0.2,0.3-0.3,0.5-0.4,0.6c-0.4,0.2-0.8,0.5-1.2,0.6c-1.9,0.2-3.7,0.2-5.5-0.6
				c-0.2-0.1-0.5-0.2-0.7-0.4c-0.2-0.1-0.2-0.4-0.3-0.6c0.2,0,0.5-0.2,0.7-0.1c0.6,0.1,1.3,0.3,1.9,0.4c1.5,0.3,3,0.3,4.5,0
				c0.2,0,0.4-0.1,0.7-0.1C275.2,154.7,275.3,154.8,275.5,154.8z"/>
			<path id="XMLID_2187_" d="M289.2,128.3c-0.6,0-1.2-0.1-1.9-0.1c-0.1,0-0.3-0.1-0.4-0.2c0.1-0.1,0.2-0.2,0.3-0.3
				c0.1-0.1,0.3-0.1,0.5-0.2c-0.1-0.1-0.2-0.2-0.3-0.3c-0.2-0.3-0.5-0.5-0.7-0.9c-0.1-0.2-0.2-0.6-0.1-0.7c0.3-0.2,0.4,0.1,0.6,0.3
				c0.7,0.6,1.4,1.2,2,1.9c0.3,0.4,0.7,0.4,1.1,0.4c0.6,0,1.1,0.3,1.2,0.8c0,0.2-0.1,0.3-0.1,0.5c-0.2,0-0.3,0-0.5-0.1
				c-0.6-0.5-1-0.5-1.7-0.2c-0.3,0.1-0.6,0.5-0.8,0.1c-0.2-0.4,0.2-0.5,0.4-0.7c0,0,0.1-0.1,0.1-0.1
				C289.2,128.5,289.2,128.4,289.2,128.3z"/>
			<path id="XMLID_2186_" d="M263.3,153.9c-0.4,0-0.8-0.1-1.2-0.1c-0.4,0-0.8-0.1-1.1-0.1c-0.7,0-0.9,0.2-1.1,0.9
				c-0.1,0.3-0.1,0.7-0.5,0.6c-0.2-0.1-0.3-0.5-0.3-0.8c0-0.9,0.6-1.5,1.4-1.7c0.9-0.1,1.7-0.2,2.5,0.5c0.2,0.1,0.3,0.3,0.4,0.5
				C263.4,153.8,263.3,153.9,263.3,153.9z"/>
			<path id="XMLID_2185_" d="M290.8,127.9c-0.3-0.1-0.5,0-0.7-0.1c-1.7-0.8-2.8-2.1-3.2-3.9c0-0.1,0-0.2,0-0.3
				c0.1-0.2,0.2-0.3,0.3-0.4c0.1,0.1,0.3,0.2,0.3,0.4c0.5,1.8,1.7,3,3.3,4c0.1,0.1,0.2,0.2,0.3,0.3
				C291,127.8,290.9,127.8,290.8,127.9z"/>
			<path id="XMLID_2184_" d="M277.7,131c0.9-0.8,1.8-1.5,2.6-2.3c0.5-0.5,0.8-1.3,1.3-1.9c0.1-0.2,0.3-0.3,0.5-0.4
				c0,0.2,0.2,0.5,0.1,0.7c-0.4,1.2-1.2,2.1-2.1,3C279.3,130.6,278.6,131,277.7,131z"/>
			<path id="XMLID_2183_" d="M296.3,164.7c-0.4,0-0.7,0.1-1.1,0c-1-0.3-1.8-0.9-2.3-1.9c-0.1-0.2-0.1-0.4-0.1-0.5
				c0-0.1,0.1-0.4,0.2-0.4c0.1,0,0.4,0.1,0.4,0.2c0.5,1,1.4,1.6,2.4,2c0.2,0.1,0.4,0.3,0.6,0.4C296.4,164.6,296.3,164.7,296.3,164.7
				z"/>
			<path id="XMLID_2182_" d="M299.2,145.3c0,1-0.6,1.7-1.4,1.6c-0.2,0-0.4-0.3-0.6-0.4c0.2-0.1,0.3-0.4,0.5-0.4
				c0.4-0.1,0.6-0.2,0.6-0.6c0-0.4,0.1-0.8-0.5-0.9c-0.1,0-0.2-0.2-0.2-0.2c0-0.1,0.1-0.2,0.3-0.3c0.4-0.1,0.7,0,1,0.3
				C299,144.7,299.1,145,299.2,145.3z"/>
			<path id="XMLID_2181_" d="M261,114c0-0.6,0-1.1,0.1-1.7c0.2-1,0.6-2,1.2-2.8c0.1-0.2,0.3-0.4,0.5-0.5c0.1-0.1,0.3,0,0.4,0
				c0,0.1,0,0.3,0,0.4c-0.1,0.2-0.2,0.3-0.3,0.5c-0.7,1-1,2.2-1.4,3.4c-0.1,0.2-0.1,0.5-0.2,0.7C261.1,114,261.1,114,261,114z"/>
			<path id="XMLID_2180_" d="M292.4,135.1c0-0.6,0.4-1,1-1.1c0.6-0.1,1.2,0.3,1.3,0.9c0,0.2-0.1,0.4-0.2,0.6
				c-0.2-0.1-0.4-0.2-0.5-0.3c-0.2-0.1-0.3-0.2-0.5-0.3c0,0-0.3,0.2-0.2,0.3c0.1,0.3,0.1,0.6-0.3,0.6c-0.4,0.1-0.5-0.2-0.6-0.6
				C292.4,135.2,292.4,135.1,292.4,135.1z"/>
			<path id="XMLID_2179_" d="M297.7,138.7c0.5,0,0.8,0.3,1,0.7c0.2,0.5,0.4,1,0,1.5c-0.1,0.1-0.4,0.2-0.6,0.2
				c-0.1,0-0.2-0.3-0.2-0.5c0-0.2,0.1-0.4,0.1-0.6c0-0.5-0.2-0.6-0.7-0.5c-0.1,0-0.3,0-0.5,0c0.1-0.2,0.1-0.4,0.2-0.5
				C297.2,138.9,297.4,138.8,297.7,138.7z"/>
			<path id="XMLID_2178_" d="M281.2,130.5c0.1-0.2,0.2-0.4,0.4-0.5c0.4-0.4,0.9-0.8,1-1.5c0-0.1,0.2-0.2,0.3-0.2
				c0.1,0,0.2,0.2,0.2,0.3c0,0.1,0,0.3,0,0.5c-0.2,0.7-0.7,1.2-1.4,1.6c-0.1,0.1-0.3,0-0.4,0.1C281.2,130.5,281.2,130.5,281.2,130.5
				z"/>
			<path id="XMLID_2177_" d="M266.9,129.8c-0.8,0.2-1.8-0.3-1.9-1c0-0.1,0-0.3,0.1-0.3c0,0,0.2-0.1,0.3,0
				C265.9,129,266.4,129.4,266.9,129.8z"/>
			<path id="XMLID_2176_" d="M265.9,131.1c-0.7,0-1.1-0.3-1.4-0.6c-0.1,0-0.1-0.2,0-0.3c0,0,0.1-0.1,0.2-0.1
				C265.1,130.3,265.5,130.5,265.9,131.1z"/>
			<path id="XMLID_2171_" class="st0" d="M275,122.3c1.1-0.7,1.7-1.7,1.8-3c0.3-2.1-1.4-4-3.4-3.9c-0.1,0-0.2,0-0.4,0
				c0.3-0.4,0.6-0.7,0.8-1.1c0.7-1.3-0.1-2.9-1.6-3c-0.4,0-0.9,0.1-1.1-0.1c-0.3-0.2-0.3-0.7-0.4-1.1c-0.1-0.3-0.3-0.4-0.6-0.3
				c-0.3,0.1-0.6,0.1-0.5,0.6c0.1,0.4,0.2,0.7,0.3,1.1c-0.2,0.1-0.4,0.1-0.5,0.1c-0.2-0.4-0.3-0.8-0.4-1.1c-0.1-0.1-0.2-0.3-0.3-0.3
				c-0.6,0-0.8,0.3-0.7,0.9c0,0.1,0,0.2,0.1,0.2c0.2,0.8,0.2,0.8-0.5,1.2c-1.1,0.5-1.1,0.6-0.7,1.7c0.1,0.3,0.3,0.3,0.5,0.2
				c0.3-0.1,0.6-0.2,0.9-0.4c0.7,2.6,1.5,5.2,2.2,7.8c-1.2,0.2-1.1,0.2-0.8,1.1c0.1,0.3,0.2,0.4,0.6,0.4c1.3,0,1.3,0,1.6,1.3
				c0.1,0.3,0.2,0.4,0.5,0.3c0.3-0.1,0.7-0.1,0.6-0.6c-0.1-0.3-0.2-0.7-0.3-1c0.3-0.1,0.5-0.1,0.8-0.2c0.2,0.5,0.3,0.9,0.5,1.4
				c1.1-0.4,1.1-0.2,0.7-1.3c0,0,0,0,0,0C274.5,122.7,274.7,122.5,275,122.3z M268.4,110.8c0,0,0.1,0,0.1-0.1
				c0.2,0.3,0.3,0.7,0.5,1.1C268.6,111.9,268.5,111.5,268.4,110.8z M269.8,113.7c0.7-0.3,1.3-0.2,2-0.1c0.3,0,0.2,0.4,0.1,0.6
				c-0.4,0.5-1,0.7-1.6,0.9C270.1,114.5,270,114.1,269.8,113.7z M274.6,119.8c-0.6,0.9-1.3,1.5-2.4,1.8c-0.5-1.4-0.9-2.8-1.4-4.2
				c0.9-0.2,1.8-0.3,2.7-0.1C274.7,117.6,275.3,118.8,274.6,119.8z"/>
			<path id="XMLID_2166_" class="st0" d="M297.8,120.7c1.4-0.9,2.3-2.1,2.3-3.9c0-1.9-1.6-3.4-3.5-3.3c-0.1,0-0.2,0-0.4,0
				c0.3-0.5,0.7-0.9,0.9-1.4c0.6-1.3-0.3-2.7-1.6-2.8c-0.4,0-0.9,0.1-1.1-0.1c-0.3-0.2-0.3-0.7-0.4-1.1c-0.1-0.3-0.3-0.4-0.6-0.3
				c-0.3,0.1-0.6,0.1-0.5,0.6c0.1,0.4,0.2,0.7,0.3,1.1c-0.2,0.1-0.3,0.1-0.5,0.2c-0.1-0.2-0.1-0.4-0.2-0.6c-0.1-0.2-0.1-0.4-0.2-0.6
				c-0.1-0.1-0.2-0.3-0.3-0.3c-0.6,0-0.8,0.2-0.6,0.8c0,0.1,0,0.2,0.1,0.3c0.2,0.8,0.2,0.8-0.5,1.1c-1.1,0.5-1.1,0.6-0.7,1.7
				c0.1,0.3,0.3,0.4,0.6,0.3c0.3-0.1,0.6-0.2,0.9-0.4c0.7,2.6,1.5,5.2,2.2,7.7c-1.1,0.2-1.1,0.2-0.8,1.1c0.1,0.3,0.3,0.4,0.6,0.4
				c1.2,0,1.3,0,1.6,1.2c0.1,0.5,0.4,0.3,0.7,0.3c0.3-0.1,0.6-0.2,0.4-0.6c-0.1-0.3-0.2-0.6-0.3-0.9c0.3-0.1,0.5-0.2,0.8-0.3
				c0.2,0.5,0.3,0.9,0.4,1.4c0.2-0.1,0.3-0.2,0.5-0.2c0.5-0.1,0.5-0.4,0.3-0.8C298,121.3,297.9,121,297.8,120.7z M291.9,110.1
				c-0.1-0.4-0.3-0.8-0.4-1.2C292,109.2,292.2,109.7,291.9,110.1z M293.1,112c0-0.1,0.1-0.3,0.2-0.3c0.5-0.1,1-0.1,1.5-0.1
				c0.3,0,0.4,0.3,0.1,0.6c-0.5,0.4-1,0.7-1.6,1C293.3,112.7,293.2,112.4,293.1,112z M297.9,117.8c-0.5,0.9-1.3,1.6-2.4,1.9
				c-0.5-1.4-0.9-2.8-1.4-4.2c1-0.2,1.9-0.3,2.8-0.1C297.9,115.7,298.4,116.9,297.9,117.8z"/>
			<path id="XMLID_2165_" class="st1" d="M276.3,157.9c0.6-0.3,0.8-0.4,0.9,0.3c-0.3,0-0.6,0.1-0.8,0.1c-0.1,0-0.2-0.1-0.2-0.2
				C276.2,158.1,276.3,157.9,276.3,157.9z"/>
			<g id="XMLID_2158_">
				<g id="XMLID_2160_">
					<path id="XMLID_38_" class="st0" d="M281.2,83.1c3.2,0,6.3,0.6,9.4,1.5c1.6,0.5,3.1,1.3,4.6,1.9c0.1,0.1,0.2,0.1,0.3,0.1
						c0,0,0,0,0.1,0c0.3-0.1,0.5-0.3,0.8-0.4c0,0.3,0,0.5,0,0.9c1.7,0.9,3.3,2.2,4.7,3.8c0.2-0.2,0.4-0.4,0.6-0.6
						c0.1,0,0.2-0.1,0.3-0.1c0.1,0,0.1,0,0.1,0c0.1,0.1,0.1,0.3,0.1,0.4c-0.1,0.2-0.2,0.3-0.4,0.5c-0.2,0.2-0.2,0.4-0.1,0.5
						c0.4-0.1,0.7-0.2,1-0.2c-0.1,0.3-0.1,0.7-0.2,1.1c0.4,0.8,0.9,1.7,1.3,2.6c0.8,2,1.1,4.1,0.9,6.2c-0.1,0.8-0.2,1.6-0.4,2.3
						c-0.1,0.3-0.2,0.7-0.4,0.9c-0.3,0.4-0.3,0.7-0.2,1.1c0.4,3.6,0.8,7.2,1.2,10.8c0.3,2.9,0.5,5.8,0.7,8.6c0,0.1,0,0.2,0,0.3
						c0.2-0.1,0.3-0.1,0.4-0.1c0.9-0.4,1.8-0.5,2.8-0.5c0.2,0,0.4,0,0.6,0c1.1,0.1,1.9,0.6,2.7,1.4c1.5,1.6,1.9,3.6,1.9,5.7
						c0,2-0.7,3.8-1.6,5.5c-1,2.1-2.2,3.9-3.9,5.5c-0.5,0.5-1,0.9-1.6,1.2c-0.2,0.2-0.3,0.3-0.3,0.6c0.1,1.7,0.2,3.3,0.3,5
						c0.2,3.2,0,6.4-0.4,9.6c-0.2,1.4-0.4,2.8-0.5,4.2c-0.1,1.3-0.1,2.6,0.1,3.9c0.1,0.6,0.5,1.2,0.8,1.7c0.5,0.7,1.1,1.3,1.6,2
						c0.7,0.9,1.1,1.9,1,3c0,0.6-0.3,1.1-0.5,1.6c-1,1.9-2.4,3.6-4.1,4.9c-0.9,0.7-1.8,1-2.9,1c-0.1,0-0.2,0-0.3,0c0,0,0,0-0.1,0
						c-0.2,0-0.4,0.1-0.6,0.3c-0.9,1-1.8,2.1-2.8,3.1c-1.4,1.3-3.2,2.1-5.1,2.1c-0.1,0-0.2,0-0.3,0c-2.5,0-5-0.7-7.4-1.3
						c-0.5-0.1-1.1-0.3-1.6-0.5l-4.7-1.4c-1.2-0.4-2.4-0.9-3.5-1.4c-0.1,0-0.2-0.1-0.3-0.1c-0.1,0-0.1,0-0.2,0l-13.2-9.2
						c0,0.1-0.1,0.1-0.1,0.2c-1.3-0.1-2.4-0.9-3.3-1.8c-0.9-0.9-1.6-2.1-2.2-3.2c0,0,0,0,0,0c-0.1,0-0.9-2.7-0.9-2.9
						c-0.8-3.5-1.6-6.9-2.3-10.4c-0.5-2.4-1-4.8-1.4-7.2c-0.1-0.3-0.2-0.4-0.5-0.4c-1.9-0.2-3.6-0.7-5.2-1.7
						c-1.9-1.2-3.3-2.9-4.3-4.9c-1.1-2.1-1.8-4.3-1.7-6.7c0.1-3.7,1.8-6.3,5-8c0.7-0.3,1.4-0.5,2.1-0.5c0.4,0,0.9,0,1.3,0.1
						c0.2,0,0.3,0.1,0.5,0.1c-0.1-0.7-0.1-1.4-0.2-2.1c-0.1-2.9-0.2-5.7-0.2-8.6c0-2.2,0.1-4.4,0.2-6.6c0-0.2-0.1-0.3-0.2-0.5
						c-0.4-0.5-0.3-0.6,0.2-0.7c0.2-1.8,0.4-3.5,0.6-5.3c0.3-2.6,0.8-5.2,1.9-7.6c0.7-1.5,1.8-2.8,3-3.9c1.6-1.5,3.6-2.6,5.6-3.5
						c0.1-0.1,0.3-0.1,0.5-0.2c-0.2-0.4-0.5-0.8-0.2-1.4c0.2,0.3,0.5,0.5,0.7,0.7c0.1,0.2,0.2,0.3,0.4,0.3c0.1,0,0.1,0,0.2,0
						c0.5-0.2,0.9-0.4,0.7-1c0-0.1,0-0.2,0-0.3c0-0.1,0.1-0.2,0.2-0.3c0.1,0.1,0.3,0.1,0.3,0.3c0.1,0.2,0.1,0.4,0.2,0.7
						c0.1,0,0.3-0.1,0.4-0.1c3.2-1.1,6.4-2.1,9.7-2.6c2.3-0.3,4.7-0.4,7.1-0.5C280.3,83.1,280.8,83.1,281.2,83.1 M281.2,80.4
						C281.2,80.4,281.2,80.4,281.2,80.4c-0.5,0-1,0-1.4,0c-2.2,0.1-4.8,0.2-7.3,0.6c-3.1,0.4-6.1,1.3-8.8,2.2
						c-0.5-0.3-1-0.5-1.5-0.5c-0.1,0-0.3,0-0.4,0c-0.5,0.1-1,0.3-1.3,0.6c-0.2,0-0.3,0-0.5,0c-0.1,0-0.2,0-0.3,0
						c-0.9,0.1-1.6,0.6-2,1.4c-0.2,0.4-0.3,0.7-0.4,1.1c-2,1-3.6,2-5,3.3c-1.1,1-2.6,2.6-3.6,4.8c-1.1,2.4-1.8,5.1-2.1,8.5
						c-0.1,1.2-0.3,2.4-0.4,3.7l0,0.5c-0.2,0.3-0.3,0.5-0.4,0.8c-0.3,0.8-0.2,1.6,0.2,2.4c0,0.5,0,1.1-0.1,1.6
						c-0.1,1.4-0.1,2.9-0.1,4.5c0,2.2,0.1,4.5,0.2,6.7c0,0.4,0,0.8,0,1.1c-0.8,0.1-1.6,0.3-2.3,0.7c-4.1,2.2-6.4,5.7-6.5,10.3
						c-0.1,2.6,0.6,5.1,2,8c1.3,2.6,3.1,4.6,5.2,6c1.4,0.9,3,1.6,4.8,1.9c0.4,1.9,0.7,3.9,1.1,5.8c0.5,2.3,1,4.6,1.5,6.8
						c0.3,1.2,0.6,2.4,0.8,3.6c0.1,0.3,0.5,1.6,0.5,1.7c0.2,0.7,0.4,1.3,0.7,1.8l0,0c0.6,1.2,1.4,2.7,2.7,3.9c1,0.9,2.5,2.2,4.6,2.5
						l12.3,8.6c0.4,0.3,0.9,0.5,1.4,0.5c0.3,0.1,0.6,0.2,0.9,0.3c0.8,0.3,1.5,0.6,2.3,0.9c0,0,0.1,0,0.1,0l4.7,1.4
						c0.6,0.2,1.1,0.3,1.7,0.5l0,0c2.6,0.7,5.2,1.4,8.1,1.4c0.1,0,0.2,0,0.3,0c2.6,0,4.9-1,6.9-2.8c0.9-0.8,1.6-1.7,2.4-2.5
						c0,0,0.1-0.1,0.1-0.1c1.4-0.1,2.8-0.6,4-1.6c2-1.6,3.7-3.5,4.9-5.8c0.5-1,0.8-1.9,0.8-2.7c0.1-1.8-0.5-3.4-1.6-4.8
						c-0.1-0.2-0.3-0.3-0.4-0.5c-0.4-0.5-0.8-0.9-1-1.3l0-0.1c-0.1-0.2-0.3-0.4-0.4-0.6c-0.1-1-0.1-2.1-0.1-3.3
						c0.1-1,0.2-2.1,0.4-3.2l0.1-0.8c0.5-3.6,0.7-6.9,0.5-10.2l-0.1-1.8c0-0.7-0.1-1.4-0.1-2.1c0.4-0.3,0.7-0.6,1-0.9
						c1.8-1.7,3.2-3.8,4.4-6.3c0.9-1.9,1.8-4,1.8-6.6c0-3.1-0.8-5.6-2.6-7.5c-1.3-1.4-2.8-2.2-4.5-2.3c-0.3,0-0.5,0-0.8,0
						c-0.3,0-0.5,0-0.8,0c-0.2-1.9-0.3-3.9-0.5-5.9c-0.3-2.9-0.6-5.7-0.9-8.5l-0.2-2c0.3-0.5,0.5-1,0.6-1.5c0.2-1,0.3-1.8,0.4-2.6
						c0.2-2.6-0.1-5.1-1.1-7.5c-0.3-0.7-0.6-1.4-0.9-2l0-0.2c0.2-0.8,0-1.6-0.6-2.3c-0.1-0.4-0.3-0.7-0.5-1.1
						c-0.5-0.7-1.4-1.1-2.3-1.1c-0.1,0-0.2,0-0.3,0c-0.8-0.8-1.7-1.5-2.6-2.1c-0.2-0.7-0.6-1.3-1.2-1.7c-0.4-0.3-0.9-0.4-1.4-0.4
						c-0.3,0-0.6,0.1-0.9,0.2c-0.2-0.1-0.4-0.2-0.5-0.3c-1.1-0.5-2.3-1-3.5-1.4C287.9,81,284.5,80.4,281.2,80.4L281.2,80.4
						L281.2,80.4z"/>
				</g>
				<line id="XMLID_2159_" class="st2" x1="305.5" y1="125.7" x2="306.5" y2="145"/>
			</g>
			<path id="XMLID_2157_" class="st3" d="M274.9,183c0.1,0,0.3,0,0.4,0c1.2,0.4,2.3,0.9,3.5,1.4l4.7,1.4c0.5,0.2,1.1,0.3,1.6,0.5
				c2.5,0.7,5.1,1.3,7.7,1.3c2,0,3.7-0.8,5.1-2.1c1-0.9,1.9-2,2.8-3.1c0.2-0.2,0.4-0.3,0.6-0.3c1.2,0.1,2.3-0.3,3.2-1
				c1.7-1.3,3.1-3,4.1-4.9c0.3-0.5,0.5-1.1,0.5-1.6c0.1-1.1-0.3-2.1-1-3c-0.5-0.7-1.1-1.3-1.6-2c-0.4-0.5-0.8-1.1-0.8-1.7
				c-0.1-1.3-0.2-2.6-0.1-3.9c0.1-1.4,0.3-2.8,0.5-4.2c0.4-3.2,0.6-6.4,0.4-9.6c-0.1-1.7-0.2-3.3-0.3-5c0-0.3,0.1-0.4,0.3-0.6
				c0.6-0.4,1.1-0.8,1.6-1.2c1.6-1.6,2.9-3.5,3.9-5.5c0.8-1.7,1.6-3.5,1.6-5.5c0-2.1-0.4-4.1-1.9-5.7c-0.7-0.8-1.6-1.3-2.7-1.4
				c-1.2-0.1-2.3,0.1-3.4,0.5c-0.1,0.1-0.3,0.1-0.4,0.1c0-0.1,0-0.2,0-0.3c-0.2-2.9-0.4-5.8-0.7-8.6c-0.4-3.6-0.8-7.2-1.2-10.8
				c0-0.4-0.1-0.8,0.2-1.1c0.2-0.3,0.4-0.6,0.4-0.9c0.2-0.8,0.3-1.5,0.4-2.3c0.2-2.1-0.1-4.2-0.9-6.2c-0.4-1-0.9-1.9-1.3-2.6
				c0.1-0.4,0.2-0.8,0.2-1.1c-0.3,0.1-0.6,0.1-1,0.2c-0.1-0.1-0.2-0.3,0.1-0.5c0.1-0.1,0.3-0.3,0.4-0.5c0-0.1,0-0.3-0.1-0.4
				c0-0.1-0.3,0-0.4,0c-0.2,0.1-0.4,0.3-0.6,0.6c-1.4-1.6-3-2.9-4.7-3.8c0-0.4,0-0.7,0-0.9c-0.3,0.1-0.5,0.3-0.8,0.4
				c-0.1,0-0.2,0-0.4-0.1c-1.5-0.7-3-1.4-4.6-1.9c-3.5-1.1-7-1.7-10.7-1.5c-2.4,0.1-4.7,0.2-7.1,0.5c-3.3,0.4-6.6,1.4-9.7,2.6
				c-0.1,0-0.3,0.1-0.4,0.1c-0.1-0.3-0.1-0.5-0.2-0.7c0-0.1-0.2-0.2-0.3-0.3c-0.1,0.1-0.1,0.2-0.2,0.3c0,0.1-0.1,0.2,0,0.3
				c0.1,0.6-0.2,0.8-0.7,1c-0.3,0.1-0.5,0-0.7-0.2c-0.2-0.3-0.4-0.5-0.7-0.7c-0.3,0.6-0.1,1,0.2,1.4c-0.2,0.1-0.3,0.1-0.5,0.2
				c-2,0.9-4,1.9-5.6,3.5c-1.2,1.1-2.3,2.4-3,3.9c-1.1,2.4-1.6,5-1.9,7.6c-0.2,1.8-0.4,3.5-0.6,5.3c-0.5,0.1-0.6,0.2-0.2,0.7
				c0.1,0.1,0.2,0.3,0.2,0.5c-0.1,2.2-0.2,4.4-0.2,6.6c0,2.9,0.1,5.7,0.2,8.6c0,0.7,0.1,1.4,0.2,2.1c-0.2,0-0.4-0.1-0.5-0.1
				c-1.2-0.2-2.3-0.2-3.4,0.4c-3.2,1.7-4.9,4.3-5,8c-0.1,2.4,0.7,4.6,1.7,6.7c1,2,2.4,3.7,4.3,4.9c1.6,1,3.3,1.5,5.2,1.7
				c0.3,0,0.4,0.1,0.5,0.4c0.5,2.4,0.9,4.8,1.4,7.2c0.7,3.5,1.6,6.9,2.3,10.4c0,0.2,0.9,3.1,0.9,2.9c0.6,1.2,1.3,2.3,2.2,3.2
				c0.9,0.9,2,1.7,3.3,1.8c0-0.1,0.1-0.1,0.1-0.2L274.9,183z"/>
			<line id="XMLID_2156_" class="st4" x1="305.5" y1="125.7" x2="306.5" y2="145"/>
			<g id="XMLID_2133_">
				<path id="XMLID_2153_" d="M259.8,172.9c1.3-0.1,2.1-0.9,2.1-1.9c0-0.7-0.7-1.3-1.5-1.4c-0.9-0.1-1.4,0.6-1.6,2.3
					C258.8,171.9,259.2,172.3,259.8,172.9z M260.8,170.3c0.1,0,0.2,0.2,0.2,0.3c-0.1,0.3-0.2,0.7-0.4,1c-0.1,0.2-0.5,0.3-0.7,0.3
					c-0.1,0-0.3-0.3-0.4-0.5C259.7,170.5,260.2,170,260.8,170.3z"/>
				<path id="XMLID_2134_" d="M272.3,183.6c0-0.2,0-0.3,0.1-0.5c0-0.2,0.1-0.4,0.1-0.6c0.2,0.1,0.2,0.2,0.2,0.3
					c0.2,0.8,0.7,1,1.4,0.8c0,0,0.1,0,0.1,0c0.2,0,0.5-0.4,0.9-1c0.1-0.6,0.3-1.2,0.3-1.7c0-0.7,0.1-1.3,0.3-1.9
					c0.1-0.3,0.2-0.6,0.3-0.9c0.2-0.7,0.3-1.3,0.4-2c0.1-0.2,0.1-0.5,0.3-0.7c0.9-1,2-1.9,3.3-2.4c1.6-0.6,3.2-1,4.7-1.6
					c0.9-0.3,1.7-0.8,2.5-1.3c0.3-0.2,0.6-0.3,0.9-0.3c1.6,0,3.3,0.2,4.8-0.4c1.1-0.4,2-0.4,3-0.1c0.4,0.1,1,0,1.4-0.1
					c0.1,0,0.3-0.2,0.3-0.3c0-0.1-0.1-0.2-0.3-0.3c-0.4-0.2-0.7-0.3-1.1-0.4c-1.7-0.4-3.1-1.3-4.4-2.3c-0.1-0.1-0.2-0.3-0.2-0.5
					c-0.1-1.6-0.7-3.1-1.6-4.4c-1.5-2.2-3.8-3.3-6.4-4c-2.2-0.5-4.3-0.1-6.4,0.4c-1.2,0.3-2.3,0.9-3.2,1.7c-0.2,0.2-0.5,0.4-0.8,0.4
					c-1.1,0.1-2.2,0.1-3.3,0.2c-1.1,0.1-2.1-0.2-3.1-0.6c-0.7-0.3-1.5-0.7-2.2-1.1c-1-0.6-1.8-1.3-2.8-1.9c-0.2-0.2-0.5-0.3-0.8,0
					c-0.2,0.3,0,0.5,0.2,0.7c1.2,1,2.4,2,3.8,2.8c0.1,0.1,0.3,0.2,0.3,0.3c0.5,1.1,1.3,1.8,2.2,2.5c0.8,0.6,1.6,1.2,2.5,1.8
					c0,0.1-0.1,0.1-0.1,0.1c-1.1,1.1-2.2,2.2-3.3,3.2c-0.1,0.1-0.3,0.2-0.5,0.2c-0.7-0.1-1.3,0.1-1.8,0.6c-2.9,2.4-2.7,5.9-1.5,8.8
					c0.2,0.5,0.7,0.8,1.3,0.7c0.3,0,0.5-0.1,0.8-0.2c0,0,0,0,0.1,0.1c0,0.1,0,0.2,0.1,0.4c0.2,1.2,0.5,2.3,1.3,3.1
					c0.8,0.8,1.7,1,2.6,0.3c0.1,0.4,0.2,0.8,0.3,1.2c0.1,0.4,0.2,0.9,0.5,1.3c0.3,0.5,0.9,0.8,1.4,0.7
					C272.1,184.5,272.2,184.1,272.3,183.6z M284.3,163.3c-0.1,0.1-0.3,0.1-0.4,0.1c-0.3,0-0.7-0.2-1-0.1c-0.9,0.2-1.5-0.4-2-0.9
					c0.4-0.6,0.8-1.2,1.1-1.7c0.1-0.1,0.2-0.2,0.3-0.1c1,0.2,2,0.6,2.9,1.1C285.1,162.3,284.8,162.8,284.3,163.3z M287.5,166.1
					c-0.8-0.8-1.6-1.6-2.4-2.4c0.3-0.5,0.6-1.1,1-1.7c0.1,0.1,0.3,0.2,0.4,0.3c0.6,0.6,1.2,1.1,1.8,1.7c0.1,0.1,0.1,0.3,0.1,0.5
					C288.2,165.2,287.9,165.8,287.5,166.1z M290.8,167.9c-0.9-0.4-1.8-0.8-2.6-1.1c0.4-0.6,0.7-1.1,1-1.7c0.7,0.6,1.3,1.2,2,1.9
					C291.1,167.2,291,167.5,290.8,167.9z M290.2,163c0.4,0.3,0.2,0.6,0,0.9c-0.2-0.2-0.4-0.3-0.6-0.5
					C289.7,163.2,289.8,162.8,290.2,163z M289.6,162c0.1,0.1,0,0.3-0.1,0.4c-0.1,0.2-0.3,0.3-0.5,0.4c-0.9-0.7-0.9-0.9-0.2-2
					C289.1,161.3,289.4,161.6,289.6,162z M287.7,161.7c-0.4-0.2-0.7-0.5-1-0.7c0.2-0.4,0.5-0.8,0.7-1.3
					C288.5,160.3,288.6,160.6,287.7,161.7z M285.3,158.5c0.4,0.2,0.9,0.4,1.3,0.6c0.1,0.1,0.2,0.3,0.2,0.4c-0.1,0.4-0.2,0.8-0.4,1.2
					c-0.4-0.2-0.7-0.3-1-0.5c-0.1,0-0.2-0.2-0.2-0.2C285.2,159.5,285.3,159,285.3,158.5z M283.3,157.9c1.2-0.1,1.7,0.6,1.3,1.9
					c-0.5-0.2-0.9-0.3-1.3-0.4C283.3,158.9,283.3,158.4,283.3,157.9z M281.7,157.7c0.9-0.1,1.2,0.2,1.1,1.2c0,0.1-0.2,0.3-0.3,0.3
					c-0.2,0-0.5-0.1-0.7-0.2c-0.1,0-0.2-0.1-0.2-0.2c-0.1-0.3-0.1-0.6-0.1-1C281.5,157.8,281.6,157.8,281.7,157.7z M280.9,158.9
					c-0.4,0-0.7,0-1.1-0.1c-0.1-0.3-0.1-0.6-0.2-0.9C280.7,157.7,280.9,157.6,280.9,158.9z M278.9,157.9c0.1,0,0.3,0.2,0.3,0.4
					c0.1,0.2,0.1,0.4,0.1,0.5c-1.1,0.3-1.4,0.2-1.6-0.7C278.1,158,278.5,157.9,278.9,157.9z M276.4,158.6c0.6-0.3,0.8-0.4,0.9,0.3
					c-0.3,0-0.6,0.1-0.8,0.1c-0.1,0-0.2-0.1-0.2-0.2C276.3,158.8,276.4,158.6,276.4,158.6z M276.7,160.3c0-0.1,0.1-0.1,0.2-0.1
					c1.3,0,2.7,0,4,0c0.1,0,0.2,0,0.4,0.1c-0.4,0.5-0.8,1-1.1,1.4c-0.1,0.1-0.2,0.1-0.3,0.1c-1.2-0.5-2.5-0.6-3.9-0.4
					C276.3,161.1,276.5,160.7,276.7,160.3z M275.5,172c0,0-0.1,0-0.1,0c0-0.2-0.1-0.4-0.1-0.6c0,0,0.1-0.1,0.1-0.1
					c0.1,0.1,0.3,0.2,0.4,0.3C275.7,171.7,275.6,171.9,275.5,172z M275.6,160.4c-0.5,1-0.9,1-2.2,0.4
					C274.1,160.7,274.8,160.6,275.6,160.4z M266.8,160.4c0-0.1,0.1-0.1,0.1-0.2c1.5,0.7,3,1.4,4.6,2.1c-0.3,0.3-0.5,0.6-0.8,0.8
					C269.4,162.2,268.1,161.3,266.8,160.4z M271.7,167.1c-0.1,0.1-0.4,0.4-0.6,0.6c-0.2-0.5,0-0.9,0.2-1.2
					C271.4,166.8,271.5,166.9,271.7,167.1z"/>
			</g>
			<path id="XMLID_2132_" d="M290,162.4C290,162.5,290,162.5,290,162.4L290,162.4z"/>
			<g id="XMLID_2129_">
				<path id="XMLID_34_" d="M305.9,134c0-0.2,0-0.4,0.1-0.5c0.5-0.6,1.1-1.1,1.9-1.4c0.8-0.2,1.5-0.2,2.1,0.5
					c0.2,0.2,0.4,0.4,0.7,0.6c0.1,0,0.1,0,0.2-0.1c0-0.3,0-0.6-0.1-0.8c-0.3-0.8-1-1.3-1.9-1.3c-0.9,0-1.7,0.2-2.4,0.7
					c-0.2,0.1-0.4,0.3-0.6,0.5c0-0.1-0.1-0.2-0.1-0.3L305.9,134z"/>
			</g>
		</g>
		<path id="XMLID_2127_" class="st0" d="M271.4,183c0,0.1,0,0.3-0.1,0.4c0,0.1-0.1,0.3-0.2,0.2c-0.1,0-0.3-0.1-0.3-0.2
			c-0.1-0.3-0.2-0.5-0.3-0.8c-0.2-0.6-0.3-1.2-0.6-1.7c-0.1-0.2-0.3-0.5-0.5-0.6c-0.2-0.1-0.5-0.1-0.6,0c-0.6,0.4-1.1,0.4-1.5-0.2
			c-0.4-0.6-0.8-1.3-1.1-2c-0.2-0.5-0.3-1-0.4-1.4c-0.1-0.2-0.3-0.4-0.4-0.4c-0.2,0-0.5,0.1-0.6,0.2c-0.2,0.2-0.4,0.6-0.8,0.5
			c-0.4-0.1-0.6-0.4-0.7-0.8c-0.4-1.9-0.5-3.7,0.3-5.5c0.3-0.7,0.9-1.2,1.3-1.8c0.1-0.1,0.3-0.2,0.5-0.3c0.4-0.2,0.9-0.1,1.2,0.2
			c0.2,0.2,0.2,0.6,0.1,1c-0.1,1-0.4,2-0.4,3c-0.1,1.1,0.4,1.7,1.5,2.1c1.2,0.4,2.4,0.3,3.3-0.7c0.2-0.2,0.3-0.3,0.6-0.5
			c0,0.5,0,0.9,0,1.3c0,0.6,0.3,1.1,0.8,1.3c0.6,0.2,1.2,0.3,1.8-0.2c0.2-0.2,0.4-0.4,0.6-0.6c0.6,1.1-0.2,6.4-1.4,7.2
			c-0.1-0.5-0.1-0.9-0.2-1.3c0-0.3,0-0.6-0.4-0.7c-0.2,0-0.5,0.1-0.7,0.3C271.8,181.3,271.6,182.1,271.4,183z"/>
	</g>
	<g id="XMLID_1_">
		<path id="XMLID_2_" class="st0" d="M93.8,134.9c0.1-16.5,12.8-28.2,30-28.1c10,0,18.1,3.7,23.3,10.3l-9.8,8.8
			c-3.4-4.1-7.6-6.4-12.8-6.4c-8.9,0-15.2,6.1-15.2,15.5c0,9.3,6.1,15.5,15.1,15.6c5.2,0,9.4-2.2,12.8-6.3l9.7,8.9
			c-5.3,6.6-13.4,10.2-23.4,10.1C106.4,163.2,93.8,151.4,93.8,134.9z"/>
		<path id="XMLID_4_" class="st0" d="M180.4,108.1l15.4,0.1l-0.2,54.3l-15.4-0.1L180.4,108.1z"/>
		<path id="XMLID_6_" class="st0" d="M346.7,136c0.1-16.5,12.8-28.2,30-28.1c10,0,18.1,3.7,23.3,10.3l-9.8,8.8
			c-3.4-4.1-7.6-6.4-12.8-6.4c-8.9,0-15.2,6.1-15.2,15.5c0,9.3,6.1,15.5,15.1,15.6c5.2,0,9.4-2.2,12.8-6.3l9.7,8.9
			c-5.3,6.6-13.4,10.2-23.4,10.1C359.2,164.3,346.6,152.5,346.7,136z"/>
	</g>
</g>
</svg>
